<svg version="1" xmlns="http://www.w3.org/2000/svg" width="682.667" height="682.667" viewBox="0 0 512.000000 512.000000"><path d="M237.9.4c-.2.2-3.5.6-7.4.9-14.9 1.3-34.2 5.3-52 10.7-46 14-92.7 45.5-119.9 80.9l-4.7 6 18.5 30.5c10.2 16.7 21.1 34.6 24.3 39.8 3.2 5.1 6.5 10.5 7.3 12 7.4 13 23.6 38.6 24.1 38 .3-.4 1.6-3.8 2.8-7.6 5.6-17.6 18.5-37.7 32.5-50.6 10.2-9.4 12.3-11.2 19.1-15.7 18-12.1 38.9-19.4 60.5-21 4.7-.4 58.8-.7 120.3-.7 61.4-.1 111.7-.5 111.7-.9 0-1.3-11.3-17.7-18.1-26.2-29.9-37.7-79.4-71-127-85.6-11.7-3.6-30.5-7.6-39.4-8.5-3.3-.3-6.7-.8-7.5-1.1-1.6-.6-44.5-1.4-45.1-.9zM28 135.2C13.4 164 4.8 194 1.3 229c-1 9.2-.9 46.3 0 54.5.8 7.1 1.8 14.2 2.3 17 .2 1.1.9 4.6 1.4 7.7 1.9 10.1 7.7 30 11.9 40.6 11.8 29.6 29.6 57.7 50.8 80.1 3.4 3.7 7.7 8.2 9.5 10.1 15.1 16 42 35.3 64.9 46.3 19.8 9.7 46.1 18.7 61.9 21.3 1.4.2 3.6.7 4.8 1 1.3.2 4 .7 6 1l3.7.4 11.5-20.2c16.8-29.6 42.1-73.5 55.1-96 3.8-6.5 6.6-11.8 6.4-11.8-.3 0-3.8.9-7.8 1.9-54.6 14.4-114.7-13.8-144-67.4-3-5.5-11-19.7-17.9-31.5-6.8-11.8-26.2-45.4-43-74.5-16.8-29.2-31.6-54.8-32.9-57.1-1.3-2.3-4.9-8.4-7.9-13.8-3-5.3-5.8-9.6-6.2-9.6-.3 0-2.1 2.8-3.8 6.2z"/><path d="M237 161c-19.7 4.2-34.4 12.3-49.1 26.9-19.3 19.4-28.6 41.6-28.7 68.5-.1 25.5 9.8 48.8 28.7 67.7 13 13 27.3 21.4 44.9 26.1 10 2.7 30.7 3.3 40.7 1.2 32.6-6.7 58.9-28 71.8-58.2 2.3-5.3 4-11.1 6.4-20.7 1.3-5.3 1.1-26.5-.2-33.4C341 185.5 289 150 237 161z"/><path d="M347 160c-2.1.5-2.1.6.7 3.5 25.3 26.6 39.4 59.2 39.6 91.8 0 12.3-.7 19.3-3.5 31.2-3.5 15.3-8.1 25.8-19.3 44.8-3.9 6.5-7.8 13.1-8.8 14.8-.9 1.7-15.1 25.8-31.4 53.7-16.3 27.9-30.2 51.6-30.8 52.7-.6 1.1-2.6 4.6-4.5 7.8-4.4 7.3-4.1 6.9-12.4 21.2-3.8 6.6-7.7 13.1-8.6 14.5-1 1.4-3.4 5.6-5.4 9.3l-3.7 6.9 10.8-.6c71.9-4 131.1-33 179.4-87.8 19.4-22 36-49.1 46.4-75.8 7.2-18.4 13.4-45.3 15.2-65.5 1.4-15.4.6-61.6-1.2-64.4-.1-.3-.6-2.8-.9-5.5-2.5-18.6-13.7-52.5-17.4-52.7-8.3-.4-142.6-.3-144.2.1z"/></svg>